<?xml version="1.0" encoding="UTF-8"?>
<svg width="720px" height="720px" viewBox="0 0 720 720" version="1.1" xmlns="http://www.w3.org/2000/svg" xmlns:xlink="http://www.w3.org/1999/xlink">
    <!-- Generator: Sketch 64 (93537) - https://sketch.com -->
    <title>Medical</title>
    <desc>Created with Sketch.</desc>
    <defs>
        <linearGradient x1="23.2586214%" y1="4.22685323%" x2="89.5109029%" y2="96.0639539%" id="linearGradient-1">
            <stop stop-color="#B3E5FC" offset="0%"></stop>
            <stop stop-color="#C8E6C9" offset="100%"></stop>
        </linearGradient>
    </defs>
    <g id="Medical" stroke="none" stroke-width="1" fill="none" fill-rule="evenodd">
        <g id="Group">
            <circle id="Oval" fill="url(#linearGradient-1)" cx="360" cy="360" r="359.508868"></circle>
            <circle id="Oval" fill="#B3E5FC" cx="360" cy="360" r="314.324693"></circle>
            <circle id="Oval" fill="#03A9F4" cx="360.491132" cy="360.491132" r="282.401091"></circle>
        </g>
        <g id="Logo" transform="translate(152.000000, 223.000000)">
            <g id="g931" transform="translate(78.666665, 133.333330) scale(-1, 1) rotate(-180.000000) translate(-78.666665, -133.333330) translate(0.000000, 0.000000)" fill="#FFFFFF" fill-rule="nonzero">
                <polygon id="path933" points="0 0 0 266.619993 33.1786658 266.619993 33.1786658 29.5799993 157.094663 29.5799993 157.094663 0"></polygon>
            </g>
            <g id="g935" transform="translate(78.666665, 133.333330) scale(-1, 1) rotate(-180.000000) translate(-78.666665, -133.333330) translate(0.000000, 0.000000)" stroke="#FFFFFF" stroke-width="26.666666">
                <polygon id="path937" points="0 0 0 266.619993 33.1786658 266.619993 33.1786658 29.5799993 157.094663 29.5799993 157.094663 0"></polygon>
            </g>
            <g id="g939" transform="translate(321.500002, 159.296925) scale(-1, 1) rotate(-180.000000) translate(-321.500002, -159.296925) translate(226.000002, 44.796925)">
                <g id="g941-Clipped" transform="translate(0.000000, -0.000000)">
                    <g id="g941" transform="translate(0.000020, 0.333389)">
                        <g id="g947" transform="translate(0.927040, 0.872343)" fill="#FFFFFF" fill-rule="nonzero">
                            <path d="M0,90.6666644 L0,225.775994 L31.5799992,225.775994 L31.5799992,92.665331 C31.5799992,53.493332 53.5639987,28.7079993 94.3359976,28.7079993 C135.10933,28.7079993 157.494663,53.493332 157.494663,92.665331 L157.494663,225.775994 L189.073329,225.775994 L189.073329,90.6666644 C189.073329,36.3053324 157.093329,1.12799997 94.3359976,1.12799997 C31.5799992,1.12799997 0,36.7026657 0,90.6666644" id="path949"></path>
                        </g>
                        <g id="g951" transform="translate(0.927040, 0.872343)" stroke="#FFFFFF" stroke-width="26.666666">
                            <path d="M0,90.6666644 L0,225.775994 L31.5799992,225.775994 L31.5799992,92.665331 C31.5799992,53.493332 53.5639987,28.7079993 94.3359976,28.7079993 C135.10933,28.7079993 157.494663,53.493332 157.494663,92.665331 L157.494663,225.775994 L189.073329,225.775994 L189.073329,90.6666644 C189.073329,36.3053324 157.093329,1.12799997 94.3359976,1.12799997 C31.5799992,1.12799997 0,36.7026657 0,90.6666644 Z" id="path953"></path>
                        </g>
                    </g>
                </g>
            </g>
        </g>
    </g>
</svg>